# xmcd CD database file
#
# Track frame offsets:
#	150
#	13568
#	27484
#	41197
#	55097
#	67653
#	81718
#	95279
#	108745
#	124547
#	137563
#	150150
#	171759
#	185087
#	192327
#	206648
#	220182
#	235605
#	251106
#	262472
#	277832
#	290492
#
# Disc length: 4088 seconds
#
# Revision: 0
# Processed by: cddbd v1.5.1PL0 Copyright (c) Steve Scherf et al.
# Submitted via: CDex 1.51
#
DISCID=430ff616
DTITLE=Charlie Parker - Now's the time
DYEAR=2003
DGENRE=Jazz
TTITLE0=Confirmation
TTITLE1=I Remember You
TTITLE2=Now's The Time
TTITLE3=Chi-Chi
TTITLE4=Laird Baird
TTITLE5=Cosmic Rays
TTITLE6=Kim
TTITLE7=The Song Is You
TTITLE8=Star Eyes
TTITLE9=I'm In The Mood For Love
TTITLE10=Blues (Fast)
TTITLE11=The Bird
TTITLE12=Ballade
TTITLE13=Celebrity
TTITLE14=Cardboard
TTITLE15=Visa
TTITLE16=My Melancholy Baby
TTITLE17=Bloomdido
TTITLE18=Leap Frog
TTITLE19=An Oscar For Treadwell
TTITLE20=Relaxin' With lee
TTITLE21=Mohawk
EXTD=YEAR: 2003
EXTT0=
EXTT1=
EXTT2=
EXTT3=
EXTT4=
EXTT5=
EXTT6=
EXTT7=
EXTT8=
EXTT9=
EXTT10=
EXTT11=
EXTT12=
EXTT13=
EXTT14=
EXTT15=
EXTT16=
EXTT17=
EXTT18=
EXTT19=
EXTT20=
EXTT21=
PLAYORDER=
